%FSLAX23Y23*%
%MOIN*%
G04 EasyPC Gerber Version 17.0 Build 3379 *
%AMT113*0 Bullet Pad at angle 0*21,1,0.05331,0.06209,0,0,0*%
%ADD113T113*%
%ADD110R,0.03480X0.04268*%
%ADD91R,0.04150X0.05724*%
%ADD137R,0.04937X0.05000*%
%ADD10C,0.00500*%
%ADD77C,0.04200*%
%ADD80C,0.04937*%
%ADD112C,0.05331*%
%ADD86R,0.05724X0.04150*%
%ADD79C,0.07000*%
%AMT111*0 Bullet Pad at angle 180*21,1,0.05331,0.06209,0,0,180*%
%ADD111T111*%
X0Y0D02*
D02*
D10*
X208Y3D02*
X2123D01*
Y1183*
X208*
Y3*
D02*
D77*
X318Y620D03*
X318Y563D03*
D02*
D79*
X320Y45D03*
X417Y42D03*
X522Y49D03*
X602Y51D03*
X673Y123D03*
X723Y1008D03*
Y1088D03*
X773Y43D03*
Y123D03*
Y623D03*
Y723D03*
X873Y43D03*
Y123D03*
Y723D03*
X973Y123D03*
X1073D03*
X1173D03*
X1273D03*
X1373D03*
X1473D03*
X1573Y43D03*
Y123D03*
X1653Y873D03*
X1673Y123D03*
Y723D03*
X1758Y873D03*
X1773Y123D03*
Y723D03*
X1873Y123D03*
Y723D03*
X1911Y1094D03*
X1914Y906D03*
X1968Y1056D03*
Y1129D03*
X1973Y123D03*
Y723D03*
Y873D03*
Y946D03*
X2053Y524D03*
D02*
D80*
X260Y70D03*
Y720D03*
X2071Y1094D03*
X2071Y70D03*
D02*
D86*
X993Y1022D03*
Y1093D03*
D02*
D91*
X383Y583D03*
X418Y523D03*
X454Y583D03*
X489Y523D03*
X503Y407D03*
Y468D03*
X574Y407D03*
Y468D03*
X605Y764D03*
X676D03*
X1193Y1002D03*
X1264D03*
D02*
D110*
X343Y418D03*
X434D03*
D02*
D111*
X973Y850D03*
D02*
D112*
Y819D03*
D02*
D111*
X1051Y850D03*
D02*
D112*
Y819D03*
D02*
D111*
X1130Y850D03*
D02*
D112*
Y819D03*
D02*
D111*
X1209Y850D03*
D02*
D112*
Y819D03*
D02*
D111*
X1288Y850D03*
D02*
D112*
Y819D03*
D02*
D111*
X1366Y850D03*
D02*
D112*
Y819D03*
D02*
D111*
X1445Y850D03*
D02*
D112*
Y819D03*
D02*
D111*
X1524Y850D03*
D02*
D112*
Y819D03*
D02*
D113*
X973Y266D03*
D02*
D112*
Y297D03*
D02*
D113*
X1052Y266D03*
D02*
D112*
Y297D03*
D02*
D113*
X1130Y266D03*
D02*
D112*
Y297D03*
D02*
D113*
X1209Y266D03*
D02*
D112*
Y297D03*
D02*
D113*
X1288Y266D03*
D02*
D112*
Y297D03*
D02*
D113*
X1367Y266D03*
D02*
D112*
Y297D03*
D02*
D113*
X1445Y266D03*
D02*
D112*
Y297D03*
D02*
D113*
X1524Y266D03*
D02*
D112*
Y297D03*
D02*
D137*
X275Y284D03*
X0Y0D02*
M02*
