%FSLAX23Y23*%
%MOIN*%
G04 EasyPC Gerber Version 17.0 Build 3379 *
%ADD10C,0.00500*%
%ADD118C,0.10000*%
X0Y0D02*
D02*
D10*
X185Y136D02*
X182Y133D01*
X176Y130*
X167*
X160Y133*
X157Y136*
X154Y142*
Y155*
X157Y161*
X160Y164*
X167Y167*
X176*
X182Y164*
X185Y161*
Y726D02*
X182Y723D01*
X176Y720*
X167*
X160Y723*
X157Y726*
X154Y733*
Y745*
X157Y751*
X160Y755*
X167Y758*
X176*
X182Y755*
X185Y751*
X207Y121D02*
X223Y159D01*
X239Y121*
X214Y137D02*
X232D01*
X229Y313D02*
X239D01*
Y309*
X236Y303*
X233Y300*
X226Y297*
X220*
X214Y300*
X211Y303*
X207Y309*
Y322*
X211Y328*
X214Y331*
X220Y334*
X226*
X233Y331*
X236Y328*
X239Y322*
X234Y695D02*
X244D01*
Y692*
X241Y686*
X237Y682*
X231Y679*
X225*
X219Y682*
X216Y686*
X212Y692*
Y704*
X216Y711*
X219Y714*
X225Y717*
X231*
X237Y714*
X241Y711*
X244Y704*
X234Y638D02*
X244D01*
Y634*
X241Y628*
X238Y625*
X231Y622*
X225*
X219Y625*
X216Y628*
X213Y634*
Y647*
X216Y653*
X219Y656*
X225Y659*
X231*
X238Y656*
X241Y653*
X244Y647*
X274Y348D02*
X284D01*
Y344*
X281Y338*
X278Y335*
X271Y332*
X265*
X259Y335*
X256Y338*
X253Y344*
Y357*
X256Y363*
X259Y366*
X265Y369*
X271*
X278Y366*
X281Y363*
X284Y357*
X279Y708D02*
X289D01*
Y704*
X286Y698*
X282Y695*
X276Y692*
X270*
X264Y695*
X261Y698*
X258Y704*
Y717*
X261Y723*
X264Y726*
X270Y729*
X276*
X282Y726*
X286Y723*
X289Y717*
X279Y748D02*
X289D01*
Y744*
X286Y738*
X282Y735*
X276Y732*
X270*
X264Y735*
X261Y738*
X258Y744*
Y757*
X261Y763*
X264Y766*
X270Y769*
X276*
X282Y766*
X286Y763*
X289Y757*
X273Y822D02*
Y859D01*
Y841D02*
X304D01*
Y822D02*
Y859D01*
X300Y121D02*
X315Y159D01*
X331Y121*
X306Y137D02*
X325D01*
X378Y177D02*
X393Y214D01*
X409Y177*
X384Y193D02*
X403D01*
X462Y176D02*
X478Y214D01*
X493Y176*
X468Y192D02*
X487D01*
X484Y418D02*
X494D01*
Y414*
X491Y408*
X488Y405*
X481Y402*
X475*
X469Y405*
X466Y408*
X463Y414*
Y427*
X466Y433*
X469Y436*
X475Y439*
X481*
X488Y436*
X491Y433*
X494Y427*
X564Y323D02*
X574D01*
Y319*
X571Y313*
X568Y310*
X561Y307*
X555*
X549Y310*
X546Y313*
X543Y319*
Y332*
X546Y338*
X549Y341*
X555Y344*
X561*
X568Y341*
X571Y338*
X574Y332*
X568Y182D02*
X583Y219D01*
X599Y182*
X574Y198D02*
X593D01*
X607Y986D02*
Y1024D01*
X626*
X632Y1021*
X635Y1018*
X638Y1011*
Y999*
X635Y993*
X632Y989*
X626Y986*
X607*
X618Y1067D02*
X633Y1104D01*
X649Y1067*
X624Y1083D02*
X643D01*
X618Y1147D02*
X633Y1184D01*
X649Y1147*
X624Y1163D02*
X643D01*
X668Y102D02*
X683Y139D01*
X699Y102*
X674Y117D02*
X693D01*
X668Y182D02*
X683Y219D01*
X699Y182*
X674Y198D02*
X693D01*
X668Y682D02*
X683Y719D01*
X699Y682*
X674Y698D02*
X693D01*
X668Y782D02*
X683Y819D01*
X699Y782*
X674Y798D02*
X693D01*
X688Y987D02*
Y1024D01*
X706*
X713Y1021*
X716Y1018*
X719Y1012*
Y999*
X716Y993*
X713Y990*
X706Y987*
X688*
X768Y102D02*
X783Y139D01*
X799Y102*
X774Y117D02*
X793D01*
X768Y182D02*
X783Y219D01*
X799Y182*
X774Y198D02*
X793D01*
X768Y782D02*
X783Y819D01*
X799Y782*
X774Y798D02*
X793D01*
X768Y368D02*
Y406D01*
X787*
X793Y402*
X796Y399*
X799Y393*
Y381*
X796Y374*
X793Y371*
X787Y368*
X768*
X868Y182D02*
X883Y219D01*
X899Y182*
X874Y198D02*
X892D01*
X938Y1057D02*
Y1094D01*
Y1076D02*
X969D01*
Y1057D02*
Y1094D01*
X943Y1152D02*
Y1189D01*
Y1171D02*
X974D01*
Y1152D02*
Y1189D01*
X968Y182D02*
X983Y219D01*
X999Y182*
X974Y198D02*
X993D01*
X1083Y879D02*
X1093D01*
Y876*
X1089Y870*
X1086Y867*
X1080Y863*
X1074*
X1068Y867*
X1064Y870*
X1061Y876*
Y888*
X1064Y895*
X1068Y898*
X1074Y901*
X1080*
X1086Y898*
X1089Y895*
X1093Y888*
X1067Y182D02*
X1083Y219D01*
X1099Y182*
X1074Y198D02*
X1093D01*
X1081Y611D02*
Y648D01*
X1100*
X1106Y645*
X1109Y642*
X1112Y636*
Y623*
X1109Y617*
X1106Y614*
X1100Y611*
X1081*
X1126Y300D02*
X1135D01*
Y297*
X1132Y291*
X1129Y288*
X1123Y284*
X1116*
X1110Y288*
X1107Y291*
X1104Y297*
Y309*
X1107Y316*
X1110Y319*
X1116Y322*
X1123*
X1129Y319*
X1132Y316*
X1135Y309*
X1172Y882D02*
X1181D01*
Y879*
X1178Y873*
X1175Y870*
X1168Y867*
X1162*
X1156Y870*
X1153Y873*
X1150Y879*
Y892*
X1153Y898*
X1156Y901*
X1162Y904*
X1168*
X1175Y901*
X1178Y898*
X1181Y892*
X1168Y182D02*
X1183Y219D01*
X1199Y182*
X1174Y198D02*
X1192D01*
X1242Y295D02*
X1251D01*
Y292*
X1248Y286*
X1245Y283*
X1239Y279*
X1232*
X1226Y283*
X1223Y286*
X1220Y292*
Y304*
X1223Y311*
X1226Y314*
X1232Y317*
X1239*
X1245Y314*
X1248Y311*
X1251Y304*
X1268Y182D02*
X1283Y219D01*
X1299Y182*
X1274Y198D02*
X1293D01*
X1283Y1052D02*
Y1089D01*
X1301*
X1308Y1086*
X1311Y1083*
X1314Y1077*
Y1064*
X1311Y1058*
X1308Y1055*
X1301Y1052*
X1283*
X1319Y883D02*
X1329D01*
Y879*
X1326Y873*
X1323Y870*
X1316Y867*
X1310*
X1304Y870*
X1301Y873*
X1298Y879*
Y892*
X1301Y898*
X1304Y901*
X1310Y904*
X1316*
X1323Y901*
X1326Y898*
X1329Y892*
X1368Y182D02*
X1383Y219D01*
X1399Y182*
X1374Y198D02*
X1393D01*
X1468Y102D02*
X1483Y139D01*
X1499Y102*
X1474Y117D02*
X1493D01*
X1468Y182D02*
X1483Y219D01*
X1499Y182*
X1474Y198D02*
X1493D01*
X1548Y932D02*
X1563Y969D01*
X1579Y932*
X1554Y948D02*
X1573D01*
X1568Y182D02*
X1583Y219D01*
X1599Y182*
X1574Y198D02*
X1593D01*
X1568Y782D02*
X1583Y819D01*
X1599Y782*
X1574Y798D02*
X1593D01*
X1653Y932D02*
X1668Y969D01*
X1684Y932*
X1659Y948D02*
X1678D01*
X1668Y182D02*
X1683Y219D01*
X1699Y182*
X1674Y198D02*
X1692D01*
X1668Y782D02*
X1683Y819D01*
X1699Y782*
X1674Y798D02*
X1692D01*
X1743Y1132D02*
Y1169D01*
X1761*
X1768Y1166*
X1771Y1163*
X1774Y1157*
Y1144*
X1771Y1138*
X1768Y1135*
X1761Y1132*
X1743*
X1768Y182D02*
X1783Y219D01*
X1799Y182*
X1774Y198D02*
X1793D01*
X1768Y782D02*
X1783Y819D01*
X1799Y782*
X1774Y798D02*
X1793D01*
X1863Y1115D02*
X1878Y1152D01*
X1894Y1115*
X1869Y1131D02*
X1888D01*
X1863Y1189D02*
X1878Y1226D01*
X1894Y1189*
X1869Y1204D02*
X1888D01*
X1868Y182D02*
X1883Y219D01*
X1899Y182*
X1874Y198D02*
X1893D01*
X1868Y282D02*
X1883Y319D01*
X1899Y282*
X1874Y297D02*
X1893D01*
X1868Y382D02*
X1883Y419D01*
X1899Y382*
X1874Y398D02*
X1893D01*
X1868Y482D02*
X1883Y519D01*
X1899Y482*
X1874Y498D02*
X1893D01*
X1868Y582D02*
X1883Y619D01*
X1899Y582*
X1874Y598D02*
X1893D01*
X1868Y682D02*
X1883Y719D01*
X1899Y682*
X1874Y698D02*
X1893D01*
X1868Y782D02*
X1883Y819D01*
X1899Y782*
X1874Y798D02*
X1893D01*
X1868Y932D02*
X1883Y969D01*
X1899Y932*
X1874Y948D02*
X1893D01*
X1868Y1006D02*
X1883Y1043D01*
X1899Y1006*
X1874Y1021D02*
X1893D01*
X1996Y1160D02*
X1993Y1156D01*
X1987Y1153*
X1977*
X1971Y1156*
X1968Y1160*
X1965Y1166*
Y1178*
X1968Y1185*
X1971Y1188*
X1977Y1191*
X1987*
X1993Y1188*
X1996Y1185*
X1996Y136D02*
X1993Y133D01*
X1987Y130*
X1978*
X1971Y133*
X1968Y136*
X1965Y142*
Y155*
X1968Y161*
X1971Y164*
X1978Y167*
X1987*
X1993Y164*
X1996Y161*
D02*
D118*
X54Y70D03*
Y661D03*
X107Y62D03*
X108Y238D03*
X112Y620D03*
X113Y563D03*
X153Y273D03*
X158Y632D03*
Y673D03*
X173Y763D03*
X200Y62D03*
X278Y117D03*
X362Y117D03*
X363Y343D03*
X443Y248D03*
X468Y123D03*
X507Y927D03*
X518Y1008D03*
Y1088D03*
X568Y43D03*
Y123D03*
Y623D03*
Y723D03*
X588Y928D03*
X668Y43D03*
Y123D03*
Y723D03*
X668Y309D03*
X768Y123D03*
X838Y998D03*
X843Y1093D03*
X868Y123D03*
X961Y804D03*
X968Y123D03*
X981Y551D03*
X1004Y225D03*
X1050Y807D03*
X1067Y123D03*
X1120Y220D03*
X1168Y123D03*
X1183Y993D03*
X1198Y808D03*
X1268Y123D03*
X1368Y43D03*
Y123D03*
X1448Y873D03*
X1468Y123D03*
Y723D03*
X1553Y873D03*
X1568Y123D03*
Y723D03*
X1643Y1073D03*
X1668Y123D03*
Y723D03*
X1763Y1056D03*
Y1129D03*
X1768Y123D03*
Y223D03*
Y323D03*
Y423D03*
Y523D03*
Y623D03*
Y723D03*
Y873D03*
Y946D03*
X1865Y1094D03*
X1865Y70D03*
X0Y0D02*
M02*
