%FSLAX23Y23*%
%MOIN*%
G04 EasyPC Gerber Version 17.0 Build 3379 *
%ADD10C,0.00500*%
%ADD118C,0.10000*%
X0Y0D02*
D02*
D10*
X3Y3D02*
X1918D01*
Y1183*
X3*
Y3*
X185Y136D02*
X182Y133D01*
X176Y130*
X167*
X160Y133*
X157Y136*
X154Y142*
Y155*
X157Y161*
X160Y164*
X167Y167*
X176*
X182Y164*
X185Y161*
Y726D02*
X182Y723D01*
X176Y720*
X167*
X160Y723*
X157Y726*
X154Y733*
Y745*
X157Y751*
X160Y755*
X167Y758*
X176*
X182Y755*
X185Y751*
X229Y316D02*
X236Y313D01*
X239Y306*
X236Y300*
X229Y297*
X207*
Y334*
X229*
X236Y331*
X239Y325*
X236Y319*
X229Y316*
X207*
X234Y641D02*
X241Y638D01*
X244Y631*
X241Y625*
X234Y622*
X213*
Y659*
X234*
X241Y656*
X244Y650*
X241Y644*
X234Y641*
X213*
X234Y681D02*
X241Y678D01*
X244Y671*
X241Y665*
X234Y662*
X213*
Y699*
X234*
X241Y696*
X244Y690*
X241Y684*
X234Y681*
X213*
X228Y122D02*
X243Y159D01*
X259Y122*
X234Y138D02*
X253D01*
X274Y351D02*
X281Y348D01*
X284Y341*
X281Y335*
X274Y332*
X253*
Y369*
X274*
X281Y366*
X284Y360*
X281Y354*
X274Y351*
X253*
X279Y711D02*
X286Y708D01*
X289Y701*
X286Y695*
X279Y692*
X258*
Y729*
X279*
X286Y726*
X289Y720*
X286Y714*
X279Y711*
X258*
X279Y751D02*
X286Y748D01*
X289Y741*
X286Y735*
X279Y732*
X258*
Y769*
X279*
X286Y766*
X289Y760*
X286Y754*
X279Y751*
X258*
X273Y822D02*
Y859D01*
X304*
X297Y841D02*
X273D01*
X318Y122D02*
X333Y159D01*
X349Y122*
X324Y138D02*
X343D01*
X378Y177D02*
X393Y214D01*
X409Y177*
X384Y193D02*
X403D01*
X448Y177D02*
X463Y214D01*
X479Y177*
X454Y193D02*
X473D01*
X484Y421D02*
X491Y418D01*
X494Y411*
X491Y405*
X484Y402*
X463*
Y439*
X484*
X491Y436*
X494Y430*
X491Y424*
X484Y421*
X463*
X564Y326D02*
X571Y323D01*
X574Y316*
X571Y310*
X564Y307*
X543*
Y344*
X564*
X571Y341*
X574Y335*
X571Y329*
X564Y326*
X543*
X568Y182D02*
X583Y219D01*
X599Y182*
X574Y198D02*
X593D01*
X618Y1067D02*
X633Y1104D01*
X649Y1067*
X624Y1083D02*
X643D01*
X618Y1147D02*
X633Y1184D01*
X649Y1147*
X624Y1163D02*
X643D01*
X627Y987D02*
Y1024D01*
X646*
X653Y1021*
X656Y1018*
X659Y1012*
Y999*
X656Y993*
X653Y990*
X646Y987*
X627*
X668Y102D02*
X683Y139D01*
X699Y102*
X674Y117D02*
X693D01*
X668Y182D02*
X683Y219D01*
X699Y182*
X674Y198D02*
X693D01*
X668Y682D02*
X683Y719D01*
X699Y682*
X674Y698D02*
X693D01*
X668Y782D02*
X683Y819D01*
X699Y782*
X674Y798D02*
X693D01*
X688Y987D02*
Y1024D01*
X706*
X713Y1021*
X716Y1018*
X719Y1012*
Y999*
X716Y993*
X713Y990*
X706Y987*
X688*
X768Y102D02*
X783Y139D01*
X799Y102*
X774Y117D02*
X793D01*
X768Y182D02*
X783Y219D01*
X799Y182*
X774Y198D02*
X793D01*
X768Y782D02*
X783Y819D01*
X799Y782*
X774Y798D02*
X793D01*
X768Y368D02*
Y406D01*
X787*
X793Y402*
X796Y399*
X799Y393*
Y381*
X796Y374*
X793Y371*
X787Y368*
X768*
X868Y182D02*
X883Y219D01*
X899Y182*
X874Y198D02*
X892D01*
X938Y1057D02*
Y1094D01*
X969*
X963Y1076D02*
X938D01*
Y1057D02*
X969D01*
X943Y1152D02*
Y1189D01*
X974*
X968Y1171D02*
X943D01*
Y1152D02*
X974D01*
X968Y182D02*
X983Y219D01*
X999Y182*
X974Y198D02*
X993D01*
X1003Y882D02*
X1009Y879D01*
X1012Y872*
X1009Y866*
X1003Y863*
X981*
Y900*
X1003*
X1009Y897*
X1012Y891*
X1009Y885*
X1003Y882*
X981*
X1083Y882D02*
X1089Y879D01*
X1093Y873*
X1089Y867*
X1083Y863*
X1061*
Y901*
X1083*
X1089Y898*
X1093Y892*
X1089Y885*
X1083Y882*
X1061*
X1067Y182D02*
X1083Y219D01*
X1099Y182*
X1074Y198D02*
X1093D01*
X1126Y303D02*
X1132Y300D01*
X1135Y294*
X1132Y288*
X1126Y284*
X1104*
Y322*
X1126*
X1132Y319*
X1135Y313*
X1132Y306*
X1126Y303*
X1104*
X1168Y182D02*
X1183Y219D01*
X1199Y182*
X1174Y198D02*
X1192D01*
X1239Y891D02*
X1246Y888D01*
X1249Y881*
X1246Y875*
X1239Y872*
X1218*
Y909*
X1239*
X1246Y906*
X1249Y900*
X1246Y894*
X1239Y891*
X1218*
X1242Y298D02*
X1248Y295D01*
X1251Y289*
X1248Y283*
X1242Y279*
X1220*
Y317*
X1242*
X1248Y314*
X1251Y308*
X1248Y301*
X1242Y298*
X1220*
X1268Y182D02*
X1283Y219D01*
X1299Y182*
X1274Y198D02*
X1293D01*
X1283Y1052D02*
Y1089D01*
X1301*
X1308Y1086*
X1311Y1083*
X1314Y1077*
Y1064*
X1311Y1058*
X1308Y1055*
X1301Y1052*
X1283*
X1319Y886D02*
X1326Y883D01*
X1329Y876*
X1326Y870*
X1319Y867*
X1298*
Y904*
X1319*
X1326Y901*
X1329Y895*
X1326Y889*
X1319Y886*
X1298*
X1368Y182D02*
X1383Y219D01*
X1399Y182*
X1374Y198D02*
X1393D01*
X1468Y102D02*
X1483Y139D01*
X1499Y102*
X1474Y117D02*
X1493D01*
X1468Y182D02*
X1483Y219D01*
X1499Y182*
X1474Y198D02*
X1493D01*
X1548Y932D02*
X1563Y969D01*
X1579Y932*
X1554Y948D02*
X1573D01*
X1568Y182D02*
X1583Y219D01*
X1599Y182*
X1574Y198D02*
X1593D01*
X1568Y782D02*
X1583Y819D01*
X1599Y782*
X1574Y798D02*
X1593D01*
X1653Y932D02*
X1668Y969D01*
X1684Y932*
X1659Y948D02*
X1678D01*
X1668Y182D02*
X1683Y219D01*
X1699Y182*
X1674Y198D02*
X1692D01*
X1668Y782D02*
X1683Y819D01*
X1699Y782*
X1674Y798D02*
X1692D01*
X1743Y1132D02*
Y1169D01*
X1761*
X1768Y1166*
X1771Y1163*
X1774Y1157*
Y1144*
X1771Y1138*
X1768Y1135*
X1761Y1132*
X1743*
X1768Y182D02*
X1783Y219D01*
X1799Y182*
X1774Y198D02*
X1793D01*
X1768Y782D02*
X1783Y819D01*
X1799Y782*
X1774Y798D02*
X1793D01*
X1863Y1117D02*
X1878Y1154D01*
X1894Y1117*
X1869Y1133D02*
X1888D01*
X1863Y1187D02*
X1878Y1224D01*
X1894Y1187*
X1869Y1202D02*
X1888D01*
X1868Y182D02*
X1883Y219D01*
X1899Y182*
X1874Y198D02*
X1893D01*
X1868Y282D02*
X1883Y319D01*
X1899Y282*
X1874Y297D02*
X1893D01*
X1868Y382D02*
X1883Y419D01*
X1899Y382*
X1874Y398D02*
X1893D01*
X1868Y482D02*
X1883Y519D01*
X1899Y482*
X1874Y498D02*
X1893D01*
X1868Y582D02*
X1883Y619D01*
X1899Y582*
X1874Y598D02*
X1893D01*
X1868Y682D02*
X1883Y719D01*
X1899Y682*
X1874Y698D02*
X1893D01*
X1868Y782D02*
X1883Y819D01*
X1899Y782*
X1874Y798D02*
X1893D01*
X1868Y932D02*
X1883Y969D01*
X1899Y932*
X1874Y948D02*
X1893D01*
X1868Y1002D02*
X1883Y1039D01*
X1899Y1002*
X1874Y1018D02*
X1893D01*
X1996Y1160D02*
X1993Y1156D01*
X1987Y1153*
X1977*
X1971Y1156*
X1968Y1160*
X1965Y1166*
Y1178*
X1968Y1185*
X1971Y1188*
X1977Y1191*
X1987*
X1993Y1188*
X1996Y1185*
X1996Y136D02*
X1993Y133D01*
X1987Y130*
X1978*
X1971Y133*
X1968Y136*
X1965Y142*
Y155*
X1968Y161*
X1971Y164*
X1978Y167*
X1987*
X1993Y164*
X1996Y161*
D02*
D118*
X54Y70D03*
Y661D03*
X108Y238D03*
X113Y563D03*
Y603D03*
X128Y63D03*
X153Y273D03*
X158Y632D03*
Y673D03*
X173Y763D03*
X218Y63D03*
X278Y117D03*
X348D03*
X363Y343D03*
X443Y248D03*
X468Y123D03*
X518Y1008D03*
Y1088D03*
X527Y928D03*
X568Y43D03*
Y123D03*
Y623D03*
Y723D03*
X588Y928D03*
X668Y43D03*
Y123D03*
Y723D03*
X668Y309D03*
X768Y123D03*
X838Y998D03*
X843Y1093D03*
X868Y123D03*
X881Y804D03*
X961Y804D03*
X968Y123D03*
X1004Y225D03*
X1067Y123D03*
X1117Y813D03*
X1120Y220D03*
X1168Y123D03*
X1183Y993D03*
X1198Y808D03*
X1268Y123D03*
X1368Y43D03*
Y123D03*
X1448Y873D03*
X1468Y123D03*
Y723D03*
X1553Y873D03*
X1568Y123D03*
Y723D03*
X1643Y1073D03*
X1668Y123D03*
Y723D03*
X1763Y1058D03*
Y1127D03*
X1768Y123D03*
Y223D03*
Y323D03*
Y423D03*
Y523D03*
Y623D03*
Y723D03*
Y873D03*
Y943D03*
X1865Y1094D03*
X1865Y70D03*
X0Y0D02*
M02*
