%FSLAX23Y23*%
%MOIN*%
G04 EasyPC Gerber Version 17.0 Build 3379 *
%AMT107*0 Bullet Pad at angle 0*21,1,0.04331,0.05709,0,0,0*%
%ADD107T107*%
%ADD104R,0.02480X0.03268*%
%ADD28R,0.03150X0.04724*%
%ADD10C,0.00500*%
%ADD74C,0.01500*%
%ADD76C,0.02500*%
%ADD135C,0.02756*%
%ADD72C,0.03000*%
%ADD17C,0.03200*%
%ADD108C,0.03500*%
%ADD126C,0.03937*%
%ADD73C,0.04000*%
%ADD106C,0.04331*%
%ADD29C,0.04800*%
%ADD109C,0.05000*%
%ADD127C,0.05906*%
%ADD19C,0.06000*%
%ADD23R,0.04724X0.03150*%
%AMT105*0 Bullet Pad at angle 180*21,1,0.04331,0.05709,0,0,180*%
%ADD105T105*%
X0Y0D02*
D02*
D10*
X1031Y781D02*
X920D01*
Y347*
X1594*
Y781*
X1414*
G75*
G02X1393I-10J27*
G01*
X1184*
G75*
G02X1150I-17J23*
G01*
X1142*
G75*
G02X1143Y773I-19J-7*
G01*
Y579*
X1163*
G75*
G02X1223Y551I24J-27*
G01*
G75*
G02X1153Y539I-37*
G01*
X1123*
G75*
G02X1103Y559J20*
G01*
Y753*
X1051*
G75*
G02X1031Y773J20*
G01*
Y781*
G36*
X920*
Y347*
X1594*
Y781*
X1414*
G75*
G02X1393I-10J27*
G01*
X1184*
G75*
G02X1150I-17J23*
G01*
X1142*
G75*
G02X1143Y773I-19J-7*
G01*
Y579*
X1163*
G75*
G02X1223Y551I24J-27*
G01*
G75*
G02X1153Y539I-37*
G01*
X1123*
G75*
G02X1103Y559J20*
G01*
Y753*
X1051*
G75*
G02X1031Y773J20*
G01*
Y781*
G37*
D02*
D17*
X318Y620D03*
X318Y563D03*
X322Y271D03*
X363Y632D03*
Y673D03*
X367Y257D03*
X1167Y804D03*
X1255Y807D03*
X1326Y220D03*
X1403Y808D03*
D02*
D19*
X320Y45D03*
X417Y42D03*
X522Y49D03*
X602Y51D03*
X673Y123D03*
X723Y1008D03*
Y1088D03*
X773Y43D03*
Y123D03*
Y623D03*
Y723D03*
X873Y43D03*
Y123D03*
Y723D03*
X973Y123D03*
X1073D03*
X1173D03*
X1273D03*
X1373D03*
X1473D03*
X1573Y43D03*
Y123D03*
X1653Y873D03*
X1673Y123D03*
Y723D03*
X1758Y873D03*
X1773Y123D03*
Y723D03*
X1873Y123D03*
Y723D03*
X1968Y1056D03*
Y1129D03*
X1973Y123D03*
Y223D03*
Y323D03*
Y423D03*
Y523D03*
Y623D03*
Y723D03*
Y873D03*
Y946D03*
D02*
D23*
X993Y1022D03*
Y1093D03*
D02*
D28*
X383Y583D03*
X418Y523D03*
X454Y583D03*
X489Y523D03*
X503Y407D03*
Y468D03*
X574Y407D03*
Y468D03*
X605Y764D03*
X676D03*
X1193Y1002D03*
X1264D03*
D02*
D29*
X255Y465D03*
X378Y763D03*
X585Y246D03*
X713Y927D03*
X793Y928D03*
X812Y234D03*
X874Y309D03*
X1043Y998D03*
X1048Y1093D03*
X1187Y551D03*
X1388Y993D03*
X1680Y444D03*
X1760Y398D03*
X1848Y1073D03*
D02*
D72*
X318Y563D02*
X333D01*
Y418*
X343*
X574Y468D02*
Y407D01*
X993Y1022D02*
Y998D01*
X1043*
X1210Y225D02*
Y279D01*
X1209*
X1210Y225D03*
D02*
D73*
X378Y763D02*
X496D01*
Y764*
X605*
X683Y808D02*
X733D01*
X683D02*
Y868D01*
Y808D02*
Y738D01*
X733*
X683Y868D02*
X733D01*
Y877*
X683Y868D02*
Y928D01*
X793*
X733Y748D02*
Y723D01*
X773*
X733Y813D02*
Y748D01*
Y877D02*
Y813D01*
Y877D02*
Y902D01*
X713*
Y927*
X793Y928D02*
X858D01*
Y998*
X1043*
X793Y928D02*
X753D01*
Y927*
X713*
X873Y723D02*
Y309D01*
X973Y837D02*
X973D01*
Y892*
X733*
Y877*
X1193Y1002D02*
Y998D01*
X1043*
D02*
D74*
X318Y620D02*
Y591D01*
X318*
Y563*
X322Y271D02*
Y176D01*
X916*
Y35*
X1073*
Y123*
X363Y632D02*
X454D01*
Y583*
X363Y673D02*
X255D01*
Y465*
X367Y257D02*
X364D01*
Y201*
X814*
Y234*
X812*
X418Y523D02*
X383D01*
Y583*
X434Y418D02*
Y523D01*
X418*
X489D02*
Y583D01*
X454*
X489Y523D02*
Y468D01*
X503*
Y418D02*
Y407D01*
X690Y673D02*
Y668D01*
X733Y738D02*
Y748D01*
Y808D02*
Y813D01*
X873Y309D02*
X874D01*
X973Y279D02*
Y123D01*
X973*
X993Y1093D02*
X1048D01*
Y1093*
X1051Y837D02*
Y773D01*
X1123*
Y559*
X1187*
Y551*
X1052Y279D02*
Y166D01*
X1123*
Y39*
X1273*
Y123*
X1130Y837D02*
X1167D01*
Y804*
X1130Y279D02*
Y191D01*
X1468*
Y123*
X1473*
X1209Y837D02*
Y938D01*
X1828*
Y808*
X1973*
Y723*
X1264Y1002D02*
X1393D01*
Y998*
X1388Y993*
X1288Y837D02*
X1255D01*
Y807*
X1288Y279D02*
Y220D01*
X1326*
X1366Y837D02*
X1403D01*
Y808*
X1367Y279D02*
Y219D01*
X1573*
Y123*
X1445Y837D02*
Y902D01*
X1595*
Y811*
X1673*
Y723*
X1524Y635D02*
X1523D01*
X1524Y279D02*
X1623D01*
Y43*
X1573*
X1680Y444D02*
Y630D01*
X1773*
Y723*
X1760Y398D02*
X1873D01*
Y723*
D02*
D76*
X793Y928D02*
Y1148D01*
X1848*
Y1073*
D02*
D104*
X343Y418D03*
X434D03*
D02*
D105*
X973Y848D03*
D02*
D106*
Y819D03*
D02*
D105*
X1051Y848D03*
D02*
D106*
Y819D03*
D02*
D105*
X1130Y848D03*
D02*
D106*
Y819D03*
D02*
D105*
X1209Y848D03*
D02*
D106*
Y819D03*
D02*
D105*
X1288Y848D03*
D02*
D106*
Y819D03*
D02*
D105*
X1366Y848D03*
D02*
D106*
Y819D03*
D02*
D105*
X1445Y848D03*
D02*
D106*
Y819D03*
D02*
D105*
X1524Y848D03*
D02*
D106*
Y819D03*
D02*
D107*
X973Y269D03*
D02*
D106*
Y297D03*
D02*
D107*
X1052Y269D03*
D02*
D106*
Y297D03*
D02*
D107*
X1130Y269D03*
D02*
D106*
Y297D03*
D02*
D107*
X1209Y269D03*
D02*
D106*
Y297D03*
D02*
D107*
X1288Y269D03*
D02*
D106*
Y297D03*
D02*
D107*
X1367Y269D03*
D02*
D106*
Y297D03*
D02*
D107*
X1445Y269D03*
D02*
D106*
Y297D03*
D02*
D107*
X1524Y269D03*
D02*
D106*
Y297D03*
D02*
D108*
X363Y673D02*
X690D01*
X574Y407D02*
X622D01*
D02*
D109*
X585Y246D02*
X690D01*
Y407*
X622D02*
X690D01*
Y668*
X733Y748D02*
X690D01*
Y668*
D02*
D126*
X459Y424D03*
D02*
D127*
X973Y837D02*
Y675D01*
X972*
X1445Y279D02*
Y430D01*
X1435*
X1524Y837D02*
Y635D01*
D02*
D135*
X434Y418D02*
X503D01*
X0Y0D02*
M02*
