%FSLAX23Y23*%
%MOIN*%
G04 EasyPC Gerber Version 17.0 Build 3379 *
%ADD11C,0.00100*%
%ADD16C,0.00128*%
%ADD10C,0.00500*%
%ADD12C,0.00600*%
%ADD14C,0.00800*%
X0Y0D02*
D02*
D10*
X1563Y873D02*
Y243D01*
X933*
Y873*
X1563*
D02*
D11*
X911Y904D02*
Y891D01*
X917Y900D02*
X905Y894D01*
Y900D02*
X917Y894D01*
X943Y954D02*
Y949D01*
X945*
X948Y951*
X950Y952*
X951Y955*
Y959*
X950Y962*
X948Y963*
X945Y965*
X939*
X936Y963*
X934Y962*
X932Y959*
Y955*
X934Y952*
X936Y951*
X939Y949*
X951Y940D02*
X932D01*
X951Y924*
X932*
X951Y915D02*
X932D01*
Y905*
X934Y902*
X936Y901*
X939Y899*
X945*
X948Y901*
X950Y902*
X951Y905*
Y915*
X1318Y507D02*
Y526D01*
X1307*
X1304Y524*
X1303Y521*
X1304Y518*
X1307Y517*
X1318*
X1307D02*
X1303Y507D01*
X1293D02*
Y526D01*
X1278*
X1281Y517D02*
X1293D01*
X1268Y507D02*
Y526D01*
X1260Y517*
X1253Y526*
Y507*
X1239D02*
X1235Y509D01*
X1232Y512*
X1231Y517*
Y521*
X1232Y524*
X1235Y526*
X1239*
X1242Y524*
X1243Y521*
X1242Y518*
X1239Y517*
X1235*
X1232Y518*
X1231Y521*
X1214Y517D02*
X1210D01*
X1207Y518*
X1206Y521*
X1207Y524*
X1210Y526*
X1214*
X1217Y524*
X1218Y521*
X1217Y518*
X1214Y517*
X1217Y515*
X1218Y512*
X1217Y509*
X1214Y507*
X1210*
X1207Y509*
X1206Y512*
X1207Y515*
X1210Y517*
X1193Y526D02*
X1192Y507D01*
X1185Y517*
X1179Y507*
X1178Y526*
D02*
D12*
X430Y559D02*
X406D01*
X430Y606D02*
X406D01*
X465Y499D02*
X441D01*
X465Y546D02*
X441D01*
X550Y384D02*
X526D01*
X550Y431D02*
X526D01*
X550Y444D02*
X526D01*
X550Y491D02*
X526D01*
X629Y741D02*
X652D01*
X629Y788D02*
X652D01*
X970Y1069D02*
Y1046D01*
X1017Y1069D02*
Y1046D01*
X1240Y979D02*
X1216D01*
X1240Y1026D02*
X1216D01*
D02*
D14*
X353Y392D02*
X424D01*
X353Y443D02*
X424D01*
X369Y392D02*
Y443D01*
D02*
D16*
X348Y469D02*
Y458D01*
X354*
X356Y459*
X357Y460*
X358Y462*
Y466*
X357Y468*
X356Y469*
X354Y469*
X348*
X366D02*
X370D01*
X368D02*
Y458D01*
X366Y460*
X353Y593D02*
X354Y592D01*
X356Y591*
X359*
X361Y592*
X362Y593*
X363Y595*
Y599*
X362Y601*
X361Y602*
X359Y603*
X356*
X354Y602*
X353Y601*
X347Y594D02*
X346Y596D01*
X344Y597*
X342*
X340Y596*
X339Y594*
X340Y592*
X342Y591*
X344*
X346Y592*
X347Y594*
Y597*
X346Y600*
X344Y602*
X342Y603*
X533Y511D02*
Y523D01*
X526*
X524Y522*
X523Y520*
X524Y518*
X526Y516*
X533*
X526D02*
X523Y511D01*
X509D02*
X517D01*
X510Y518*
X509Y520*
X510Y522*
X512Y523*
X515*
X517Y522*
X610Y804D02*
X609Y805D01*
X607Y806*
X604*
X602Y805*
X601Y804*
X600Y802*
Y798*
X601Y796*
X602Y795*
X604Y794*
X607*
X609Y795*
X610Y796*
X621Y806D02*
Y794D01*
X616Y802*
X624*
X623Y398D02*
X624Y397D01*
X626Y396*
X629*
X631Y397*
X632Y398*
X633Y400*
Y404*
X632Y406*
X631Y406*
X629Y407*
X626*
X624Y406*
X623Y406*
X617Y397D02*
X615Y396D01*
X612*
X610Y397*
X609Y399*
Y400*
X610Y402*
X612Y403*
X617*
Y407*
X609*
X633Y456D02*
Y468D01*
X626*
X624Y467*
X623Y465*
X624Y463*
X626Y462*
X633*
X626D02*
X623Y456D01*
X616Y457D02*
X614Y456D01*
X612*
X610Y457*
X609Y459*
X610Y461*
X612Y462*
X614*
X612D02*
X610Y463D01*
X609Y465*
X610Y467*
X612Y468*
X614*
X616Y467*
X1048Y1023D02*
X1047Y1022D01*
X1046Y1020*
Y1016*
X1047Y1014*
X1048Y1014*
X1050Y1013*
X1054*
X1056Y1014*
X1057Y1014*
X1058Y1016*
Y1020*
X1057Y1022*
X1056Y1023*
X1047Y1030D02*
X1046Y1032D01*
Y1034*
X1047Y1036*
X1049Y1037*
X1051Y1036*
X1052Y1034*
Y1032*
Y1034D02*
X1053Y1036D01*
X1055Y1037*
X1057Y1036*
X1058Y1034*
Y1032*
X1057Y1030*
X1027Y1014D02*
Y1019D01*
Y1016D02*
X1039D01*
X1037Y1014*
X1028Y1030D02*
X1027Y1032D01*
Y1034*
X1028Y1036*
X1030Y1037*
X1036*
X1038Y1036*
X1039Y1034*
Y1032*
X1038Y1030*
X1036Y1029*
X1030*
X1028Y1030*
X1038Y1036*
X1027Y1045D02*
X1035D01*
X1032D02*
X1034Y1046D01*
X1035Y1048*
Y1050*
X1034Y1052*
X1032Y1053*
X1027*
Y1061D02*
X1039D01*
Y1071*
X1033Y1069D02*
Y1061D01*
X1253Y953D02*
X1254Y952D01*
X1256Y951*
X1259*
X1261Y952*
X1262Y953*
X1263Y955*
Y959*
X1262Y961*
X1261Y962*
X1259Y963*
X1256*
X1254Y962*
X1253Y961*
X1245Y951D02*
X1241D01*
X1243D02*
Y963D01*
X1245Y961*
X1258Y931D02*
Y943D01*
X1263Y935*
X1255*
X1246Y931D02*
X1245Y932D01*
X1246Y933*
X1247Y932*
X1246Y931*
X1231D02*
X1223Y943D01*
X1231*
X1215Y939D02*
Y934D01*
X1214Y932*
X1212Y931*
X1210*
X1208Y932*
X1207Y934*
Y939D02*
Y931D01*
X1199D02*
Y943D01*
X1189*
X1191Y937D02*
X1199D01*
X0Y0D02*
M02*
