%FSLAX23Y23*%
%MOIN*%
G04 EasyPC Gerber Version 17.0 Build 3379 *
%ADD138R,0.02400X0.07500*%
%ADD91R,0.04150X0.05724*%
%ADD137R,0.04937X0.05000*%
%ADD78R,0.05724X0.15567*%
%ADD10C,0.00500*%
%ADD77C,0.04200*%
%ADD80C,0.04937*%
%ADD82R,0.07600X0.03000*%
%ADD85R,0.05724X0.03165*%
%ADD86R,0.05724X0.04150*%
%ADD89R,0.06906X0.04937*%
%ADD90R,0.07102X0.04937*%
%ADD83R,0.19110X0.04937*%
%ADD79C,0.07000*%
%ADD81C,0.07000*%
%ADD84R,0.14386X0.07299*%
%ADD139R,0.12100X0.10700*%
X0Y0D02*
D02*
D10*
X208Y3D02*
X2123D01*
Y1183*
X208*
Y3*
D02*
D77*
X318Y620D03*
X318Y563D03*
D02*
D78*
X386Y518D03*
X508D03*
D02*
D79*
X320Y45D03*
X417Y42D03*
X522Y49D03*
X602Y51D03*
X673Y123D03*
X723Y1008D03*
Y1088D03*
X773Y43D03*
Y123D03*
Y623D03*
Y723D03*
X873Y43D03*
Y123D03*
Y723D03*
X973Y123D03*
X1073D03*
X1173D03*
X1273D03*
X1373D03*
X1473D03*
X1573Y43D03*
Y123D03*
X1653Y873D03*
X1673Y123D03*
Y723D03*
X1758Y873D03*
X1773Y123D03*
Y723D03*
X1873Y123D03*
Y723D03*
X1911Y1094D03*
X1914Y906D03*
X1968Y1056D03*
Y1129D03*
X1973Y123D03*
Y723D03*
Y873D03*
Y946D03*
X2053Y524D03*
D02*
D80*
X260Y70D03*
Y720D03*
X2071Y1094D03*
X2071Y70D03*
D02*
D81*
X973Y623D03*
Y723D03*
X1073Y623D03*
Y723D03*
X1173Y623D03*
Y723D03*
X1273D03*
X1373D03*
X1473D03*
X1573D03*
D02*
D82*
X1128Y943D03*
Y993D03*
Y1043D03*
Y1093D03*
X1318Y943D03*
Y993D03*
Y1043D03*
Y1093D03*
D02*
D83*
X634Y928D03*
Y1007D03*
D02*
D84*
X429Y834D03*
Y1101D03*
D02*
D85*
X402Y635D03*
Y673D03*
Y710D03*
X504Y635D03*
Y710D03*
D02*
D86*
X275Y145D03*
Y216D03*
X558Y637D03*
Y708D03*
X636Y366D03*
Y437D03*
X868Y932D03*
Y1003D03*
X2054Y372D03*
Y443D03*
D02*
D89*
X1658Y988D03*
X1757D03*
D02*
D90*
X1658Y1066D03*
X1757D03*
D02*
D91*
X247Y380D03*
X317D03*
X1448Y998D03*
Y1073D03*
X1519Y998D03*
Y1073D03*
D02*
D137*
X275Y284D03*
D02*
D138*
X356Y121D03*
Y343D03*
X382Y121D03*
Y343D03*
X407Y121D03*
Y343D03*
X433Y121D03*
Y343D03*
X459Y121D03*
Y343D03*
X484Y121D03*
Y343D03*
X509Y121D03*
Y343D03*
X536Y121D03*
Y343D03*
D02*
D139*
X446Y232D03*
X0Y0D02*
M02*
