%FSLAX23Y23*%
%MOIN*%
G04 EasyPC Gerber Version 17.0 Build 3379 *
%ADD28R,0.03150X0.04724*%
%ADD18R,0.04724X0.14567*%
%ADD25R,0.06496X0.09370*%
%ADD10C,0.00500*%
%ADD75C,0.01000*%
%ADD74C,0.01500*%
%ADD76C,0.02500*%
%ADD72C,0.03000*%
%ADD17C,0.03200*%
%ADD126C,0.03937*%
%ADD73C,0.04000*%
%ADD29C,0.04800*%
%ADD19C,0.06000*%
%ADD70C,0.06000*%
%ADD24R,0.04134X0.01575*%
%ADD71R,0.06600X0.02000*%
%ADD22R,0.04724X0.02165*%
%ADD23R,0.04724X0.03150*%
%ADD26R,0.05906X0.03937*%
%ADD27R,0.06102X0.03937*%
%ADD20R,0.18110X0.03937*%
%ADD21R,0.13386X0.06299*%
X0Y0D02*
D02*
D10*
X3Y3D02*
X1918D01*
Y1183*
X3*
Y3*
D02*
D17*
X108Y238D03*
X113Y563D03*
Y603D03*
X153Y273D03*
X158Y632D03*
Y673D03*
X363Y343D03*
X443Y248D03*
X881Y804D03*
X961Y804D03*
X1117Y813D03*
X1120Y220D03*
X1198Y808D03*
D02*
D18*
X180Y518D03*
X303D03*
D02*
D19*
X128Y63D03*
X218D03*
X278Y117D03*
X348D03*
X468Y123D03*
X518Y1008D03*
Y1088D03*
X568Y43D03*
Y123D03*
Y623D03*
Y723D03*
X668Y43D03*
Y123D03*
Y723D03*
X768Y123D03*
X868D03*
X968D03*
X1067D03*
X1168D03*
X1268D03*
X1368Y43D03*
Y123D03*
X1448Y873D03*
X1468Y123D03*
Y723D03*
X1553Y873D03*
X1568Y123D03*
Y723D03*
X1668Y123D03*
Y723D03*
X1763Y1058D03*
Y1127D03*
X1768Y123D03*
Y223D03*
Y323D03*
Y423D03*
Y523D03*
Y623D03*
Y723D03*
Y873D03*
Y943D03*
D02*
D70*
X768Y623D03*
Y723D03*
X868Y623D03*
Y723D03*
X968Y623D03*
Y723D03*
X1067D03*
X1168D03*
X1268D03*
X1368D03*
D02*
D71*
X923Y943D03*
Y993D03*
Y1043D03*
Y1093D03*
X1113Y943D03*
Y993D03*
Y1043D03*
Y1093D03*
D02*
D20*
X428Y928D03*
Y1007D03*
D02*
D21*
X223Y834D03*
Y1101D03*
D02*
D22*
X196Y635D03*
Y673D03*
Y710D03*
X299Y635D03*
Y710D03*
D02*
D23*
X353Y637D03*
Y708D03*
X663Y932D03*
Y1003D03*
D02*
D24*
X210Y198D03*
Y218D03*
Y238D03*
Y257D03*
Y277D03*
X335Y198D03*
Y218D03*
Y238D03*
Y257D03*
Y277D03*
D02*
D25*
X273Y238D03*
D02*
D26*
X1453Y988D03*
X1551D03*
D02*
D27*
X1453Y1066D03*
X1551D03*
D02*
D28*
X1242Y998D03*
Y1073D03*
X1313Y998D03*
Y1073D03*
D02*
D29*
X173Y763D03*
X527Y928D03*
X588D03*
X668Y309D03*
X838Y998D03*
X843Y1093D03*
X1183Y993D03*
X1643Y1073D03*
D02*
D72*
X113Y563D02*
Y518D01*
X180*
X196Y635D02*
X158D01*
X196Y710D02*
X113D01*
Y563*
X328Y710D02*
X299D01*
X343Y763D02*
Y710D01*
X328*
X353Y708D02*
X407D01*
Y518*
X303*
X518Y1088D02*
X653D01*
Y1003*
X663*
X743*
Y943*
X923*
X1004Y225D03*
X1218Y1127D02*
X1453D01*
X1218D02*
Y993D01*
X1453Y1127D02*
X1718D01*
X1643Y1073D02*
Y943D01*
X1703*
Y873*
X1768*
X1703Y943D02*
X1768D01*
X1718Y1127D02*
Y1058D01*
X1763*
X1718Y1127D02*
X1763D01*
D02*
D73*
X173Y763D02*
X343D01*
X428Y928D02*
X588D01*
X527Y928D02*
X663D01*
X668Y723D02*
Y863D01*
X1113*
Y943*
X668Y309D02*
X805D01*
Y225*
X1004*
X838Y998D02*
X883D01*
Y993*
X923*
X1113D02*
Y943D01*
X1183Y993D02*
X1113D01*
D02*
D74*
X108Y238D02*
X210D01*
X158Y635D02*
Y632D01*
X210Y198D02*
Y173D01*
X348*
Y117*
X210Y218D02*
X158D01*
Y117*
X278*
X210Y257D02*
X153D01*
Y273*
X210Y277D02*
X213D01*
Y308*
X303*
Y343*
X363*
X273Y238D02*
X335D01*
Y198D02*
X396D01*
Y173*
X715*
Y70*
X748*
Y40*
X868*
Y123*
X335Y218D02*
X743D01*
Y166*
X916*
Y37*
X968*
Y123*
X335Y257D02*
X388D01*
Y288*
X598*
Y513*
X818*
Y723*
X868*
X335Y277D02*
Y313D01*
X553*
Y538*
X723*
Y723*
X768*
X353Y637D02*
X299D01*
Y635*
X353Y708D02*
X328D01*
Y710*
X443Y248D02*
X403D01*
Y238*
X335*
X568Y43D02*
Y123D01*
X588Y928D02*
Y928D01*
X663D02*
Y932D01*
X668Y43D02*
Y123D01*
X881Y548D02*
Y372D01*
X1619*
Y40*
X1768*
Y123*
X881Y548D02*
Y541D01*
Y561D02*
Y548D01*
X923Y1093D02*
X843D01*
X925Y517D02*
X1668D01*
Y495*
X1113Y1093D02*
X1018D01*
Y943*
X923*
X1117Y813D02*
X1067D01*
Y723*
X1120Y220D02*
Y123D01*
X1168*
Y723D02*
Y764D01*
X1238*
Y928*
X1313*
Y998*
X1183Y993D02*
X1218D01*
X1198Y808D02*
X1148D01*
Y778*
X1117*
Y673*
X1013*
Y723*
X968*
X1218Y993D02*
X1242D01*
Y1073*
Y1127*
X1218*
X1313Y1073D02*
X1388D01*
Y863*
X1268*
Y723*
X1453Y988D02*
Y863D01*
X1388*
X1453Y1066D02*
Y1127D01*
X1551Y988D02*
Y810D01*
X1320*
Y673*
X1168*
Y723*
X1551Y1066D02*
Y1073D01*
X1643*
X1668Y495D02*
X1668D01*
Y123*
X1668Y495D02*
Y473D01*
D02*
D75*
X881Y804D02*
X909D01*
Y561*
X881*
X961Y804D02*
X925D01*
Y517*
D02*
D76*
X158Y673D02*
X196D01*
D02*
D126*
X518Y1088D02*
X316D01*
Y1041*
X91*
Y763*
X173*
X0Y0D02*
M02*
