%FSLAX23Y23*%
%MOIN*%
G04 EasyPC Gerber Version 17.0 Build 3379 *
%ADD11C,0.00100*%
%ADD16C,0.00128*%
%ADD10C,0.00500*%
%ADD12C,0.00600*%
%ADD14C,0.00800*%
X0Y0D02*
D02*
D10*
X1357Y873D02*
Y243D01*
X728*
Y873*
X1357*
D02*
D11*
X705Y904D02*
Y891D01*
X712Y900D02*
X699Y894D01*
Y900D02*
X712Y894D01*
X738Y954D02*
Y949D01*
X739*
X742Y951*
X744Y952*
X745Y955*
Y959*
X744Y962*
X742Y963*
X739Y965*
X733*
X730Y963*
X728Y962*
X727Y959*
Y955*
X728Y952*
X730Y951*
X733Y949*
X745Y940D02*
X727D01*
X745Y924*
X727*
X745Y915D02*
X727D01*
Y905*
X728Y902*
X730Y901*
X733Y899*
X739*
X742Y901*
X744Y902*
X745Y905*
Y915*
X1113Y507D02*
Y526D01*
X1102*
X1098Y524*
X1097Y521*
X1098Y518*
X1102Y517*
X1113*
X1102D02*
X1097Y507D01*
X1088D02*
Y526D01*
X1072*
X1075Y517D02*
X1088D01*
X1063Y507D02*
Y526D01*
X1055Y517*
X1047Y526*
Y507*
X1033D02*
X1030Y509D01*
X1027Y512*
X1025Y517*
Y521*
X1027Y524*
X1030Y526*
X1033*
X1036Y524*
X1038Y521*
X1036Y518*
X1033Y517*
X1030*
X1027Y518*
X1025Y521*
X1008Y517D02*
X1005D01*
X1002Y518*
X1000Y521*
X1002Y524*
X1005Y526*
X1008*
X1011Y524*
X1013Y521*
X1011Y518*
X1008Y517*
X1011Y515*
X1013Y512*
X1011Y509*
X1008Y507*
X1005*
X1002Y509*
X1000Y512*
X1002Y515*
X1005Y517*
X988Y526D02*
X986Y507D01*
X980Y517*
X973Y507*
X972Y526*
D02*
D12*
X224Y559D02*
X201D01*
X224Y606D02*
X201D01*
X259Y499D02*
X236D01*
X259Y546D02*
X236D01*
X344Y384D02*
X321D01*
X344Y431D02*
X321D01*
X344Y444D02*
X321D01*
X344Y491D02*
X321D01*
X423Y741D02*
X446D01*
X423Y788D02*
X446D01*
X764Y1069D02*
Y1046D01*
X811Y1069D02*
Y1046D01*
X1034Y979D02*
X1011D01*
X1034Y1026D02*
X1011D01*
D02*
D14*
X147Y392D02*
X218D01*
X147Y443D02*
X218D01*
X163Y392D02*
Y443D01*
D02*
D16*
X142Y469D02*
Y458D01*
X148*
X151Y459*
X152Y460*
X153Y462*
Y466*
X152Y468*
X151Y469*
X148Y469*
X142*
X161D02*
X165D01*
X163D02*
Y458D01*
X161Y460*
X147Y593D02*
X148Y592D01*
X151Y591*
X154*
X156Y592*
X157Y593*
X158Y595*
Y599*
X157Y601*
X156Y602*
X154Y603*
X151*
X148Y602*
X147Y601*
X142Y594D02*
X141Y596D01*
X139Y597*
X137*
X135Y596*
X134Y594*
X135Y592*
X137Y591*
X139*
X141Y592*
X142Y594*
Y597*
X141Y600*
X139Y602*
X137Y603*
X328Y511D02*
Y523D01*
X321*
X319Y522*
X318Y520*
X319Y518*
X321Y516*
X328*
X321D02*
X318Y511D01*
X304D02*
X312D01*
X305Y518*
X304Y520*
X305Y522*
X307Y523*
X309*
X312Y522*
X405Y804D02*
X404Y805D01*
X402Y806*
X399*
X397Y805*
X396Y804*
X395Y802*
Y798*
X396Y796*
X397Y795*
X399Y794*
X402*
X404Y795*
X405Y796*
X416Y806D02*
Y794D01*
X411Y802*
X419*
X418Y398D02*
X418Y397D01*
X421Y396*
X423*
X426Y397*
X427Y398*
X428Y400*
Y404*
X427Y406*
X426Y406*
X423Y407*
X421*
X418Y406*
X418Y406*
X412Y397D02*
X409Y396D01*
X406*
X405Y397*
X404Y399*
Y400*
X405Y402*
X406Y403*
X412*
Y407*
X404*
X428Y456D02*
Y468D01*
X421*
X418Y467*
X418Y465*
X418Y463*
X421Y462*
X428*
X421D02*
X418Y456D01*
X411Y457D02*
X409Y456D01*
X406*
X405Y457*
X404Y459*
X405Y461*
X406Y462*
X409*
X406D02*
X405Y463D01*
X404Y465*
X405Y467*
X406Y468*
X409*
X411Y467*
X843Y1023D02*
X842Y1022D01*
X841Y1020*
Y1016*
X842Y1014*
X843Y1014*
X845Y1013*
X849*
X851Y1014*
X852Y1014*
X853Y1016*
Y1020*
X852Y1022*
X851Y1023*
X842Y1030D02*
X841Y1032D01*
Y1034*
X842Y1036*
X844Y1037*
X846Y1036*
X847Y1034*
Y1032*
Y1034D02*
X848Y1036D01*
X850Y1037*
X852Y1036*
X853Y1034*
Y1032*
X852Y1030*
X821Y1014D02*
Y1019D01*
Y1016D02*
X833D01*
X831Y1014*
X822Y1030D02*
X821Y1032D01*
Y1034*
X822Y1036*
X824Y1037*
X830*
X832Y1036*
X833Y1034*
Y1032*
X832Y1030*
X830Y1029*
X824*
X822Y1030*
X832Y1036*
X821Y1045D02*
X829D01*
X826D02*
X828Y1046D01*
X829Y1048*
Y1050*
X828Y1052*
X826Y1053*
X821*
Y1061D02*
X833D01*
Y1071*
X827Y1069D02*
Y1061D01*
X1048Y953D02*
X1049Y952D01*
X1050Y951*
X1054*
X1056Y952*
X1057Y953*
X1058Y955*
Y959*
X1057Y961*
X1056Y962*
X1054Y963*
X1050*
X1049Y962*
X1048Y961*
X1040Y951D02*
X1036D01*
X1038D02*
Y963D01*
X1040Y961*
X1053Y931D02*
Y943D01*
X1058Y935*
X1050*
X1041Y931D02*
X1040Y932D01*
X1041Y933*
X1042Y932*
X1041Y931*
X1026D02*
X1018Y943D01*
X1026*
X1010Y939D02*
Y934D01*
X1009Y932*
X1006Y931*
X1005*
X1002Y932*
X1002Y934*
Y939D02*
Y931D01*
X994D02*
Y943D01*
X984*
X986Y937D02*
X994D01*
X0Y0D02*
M02*
