%FSLAX23Y23*%
%MOIN*%
G04 EasyPC Gerber Version 17.0 Build 3379 *
%AMT107*0 Bullet Pad at angle 0*21,1,0.04331,0.05709,0,0,0*%
%ADD107T107*%
%ADD104R,0.02480X0.03268*%
%ADD28R,0.03150X0.04724*%
%ADD10C,0.00500*%
%ADD74C,0.01500*%
%ADD76C,0.02500*%
%ADD72C,0.03000*%
%ADD17C,0.03200*%
%ADD108C,0.03500*%
%ADD73C,0.04000*%
%ADD106C,0.04331*%
%ADD29C,0.04800*%
%ADD109C,0.05000*%
%ADD127C,0.05906*%
%ADD19C,0.06000*%
%ADD23R,0.04724X0.03150*%
%AMT105*0 Bullet Pad at angle 180*21,1,0.04331,0.05709,0,0,180*%
%ADD105T105*%
X0Y0D02*
D02*
D10*
X826Y781D02*
X714D01*
Y347*
X1388*
Y781*
X1208*
G75*
G02X1187I-10J27*
G01*
X978*
G75*
G02X945I-17J23*
G01*
X936*
G75*
G02X937Y773I-19J-7*
G01*
Y579*
X957*
G75*
G02X1018Y551I24J-27*
G01*
G75*
G02X947Y539I-37*
G01*
X917*
G75*
G02X897Y559J20*
G01*
Y753*
X846*
G75*
G02X826Y773J20*
G01*
Y781*
G36*
X714*
Y347*
X1388*
Y781*
X1208*
G75*
G02X1187I-10J27*
G01*
X978*
G75*
G02X945I-17J23*
G01*
X936*
G75*
G02X937Y773I-19J-7*
G01*
Y579*
X957*
G75*
G02X1018Y551I24J-27*
G01*
G75*
G02X947Y539I-37*
G01*
X917*
G75*
G02X897Y559J20*
G01*
Y753*
X846*
G75*
G02X826Y773J20*
G01*
Y781*
G37*
D02*
D17*
X108Y238D03*
X112Y620D03*
X113Y563D03*
X153Y273D03*
X158Y632D03*
Y673D03*
X363Y343D03*
X443Y248D03*
X961Y804D03*
X1050Y807D03*
X1120Y220D03*
X1198Y808D03*
D02*
D19*
X122Y62D03*
X200D03*
X278Y117D03*
X362Y117D03*
X468Y123D03*
X518Y1008D03*
Y1088D03*
X568Y43D03*
Y123D03*
Y623D03*
Y723D03*
X668Y43D03*
Y123D03*
Y723D03*
X768Y123D03*
X868D03*
X968D03*
X1067D03*
X1168D03*
X1268D03*
X1368Y43D03*
Y123D03*
X1448Y873D03*
X1468Y123D03*
Y723D03*
X1553Y873D03*
X1568Y123D03*
Y723D03*
X1668Y123D03*
Y723D03*
X1763Y1056D03*
Y1129D03*
X1768Y123D03*
Y223D03*
Y323D03*
Y423D03*
Y523D03*
Y623D03*
Y723D03*
Y873D03*
Y946D03*
D02*
D23*
X788Y1022D03*
Y1093D03*
D02*
D28*
X177Y583D03*
X212Y523D03*
X248Y583D03*
X283Y523D03*
X297Y407D03*
Y468D03*
X368Y407D03*
Y468D03*
X399Y764D03*
X470D03*
X987Y1002D03*
X1058D03*
D02*
D29*
X173Y763D03*
X507Y927D03*
X588Y928D03*
X668Y309D03*
X838Y998D03*
X843Y1093D03*
X981Y551D03*
X1183Y993D03*
X1643Y1073D03*
D02*
D72*
X113Y563D02*
X128D01*
Y418*
X137*
X228D02*
X253D01*
Y407*
X297*
X368Y468D02*
Y407D01*
X788Y1022D02*
Y998D01*
X838*
X1004Y225D02*
Y279D01*
X1003*
X1004Y225D03*
D02*
D73*
X173Y763D02*
X290D01*
Y764*
X399*
X416Y407D02*
X443D01*
Y248*
Y188*
X468*
Y123*
X477Y808D02*
X527D01*
X477D02*
Y868D01*
Y808D02*
Y738D01*
X527*
X477Y868D02*
X527D01*
Y877*
X477Y868D02*
Y928D01*
X588*
X527Y748D02*
Y723D01*
X568*
X527Y813D02*
Y748D01*
Y877D02*
Y813D01*
Y877D02*
Y902D01*
X507*
Y927*
X588Y928D02*
X653D01*
Y998*
X838*
X588Y928D02*
X547D01*
Y927*
X507*
X668Y723D02*
Y309D01*
X767Y837D02*
X768D01*
Y892*
X527*
Y877*
X987Y1002D02*
Y998D01*
X838*
D02*
D74*
X112Y620D02*
Y591D01*
X113*
Y563*
X153Y273D02*
Y198D01*
X122*
Y62*
X158Y632D02*
X248D01*
Y583*
X212Y523D02*
X177D01*
Y583*
X228Y418D02*
Y523D01*
X212*
X283D02*
Y583D01*
X248*
X283Y523D02*
Y468D01*
X297*
X363Y343D02*
Y173D01*
X200*
Y62*
X485Y673D02*
Y668D01*
X527Y738D02*
Y748D01*
Y808D02*
Y813D01*
X668Y309D02*
X668D01*
X767Y279D02*
Y123D01*
X768*
X788Y1093D02*
X843D01*
Y1093*
X846Y837D02*
Y773D01*
X917*
Y559*
X981*
Y551*
X846Y279D02*
Y166D01*
X918*
Y39*
X1067*
Y123*
X924Y837D02*
X961D01*
Y804*
X925Y279D02*
Y191D01*
X1263*
Y123*
X1268*
X1003Y837D02*
Y938D01*
X1623*
Y808*
X1768*
Y723*
X1058Y1002D02*
X1188D01*
Y998*
X1183Y993*
X1082Y837D02*
X1050D01*
Y807*
X1082Y279D02*
Y220D01*
X1120*
X1161Y837D02*
X1198D01*
Y808*
X1161Y279D02*
Y219D01*
X1368*
Y123*
X1239Y837D02*
Y902D01*
X1389*
Y811*
X1468*
Y723*
X1318Y635D02*
X1317D01*
X1318Y279D02*
X1418D01*
Y43*
X1368*
D02*
D76*
X253Y407D02*
Y338D01*
X108*
Y238*
X588Y928D02*
Y1148D01*
X1643*
Y1073*
D02*
D104*
X137Y418D03*
X228D03*
D02*
D105*
X767Y848D03*
D02*
D106*
Y819D03*
D02*
D105*
X846Y848D03*
D02*
D106*
Y819D03*
D02*
D105*
X924Y848D03*
D02*
D106*
Y819D03*
D02*
D105*
X1003Y848D03*
D02*
D106*
Y819D03*
D02*
D105*
X1082Y848D03*
D02*
D106*
Y819D03*
D02*
D105*
X1161Y848D03*
D02*
D106*
Y819D03*
D02*
D105*
X1239Y848D03*
D02*
D106*
Y819D03*
D02*
D105*
X1318Y848D03*
D02*
D106*
Y819D03*
D02*
D107*
X767Y269D03*
D02*
D106*
Y297D03*
D02*
D107*
X846Y269D03*
D02*
D106*
Y297D03*
D02*
D107*
X925Y269D03*
D02*
D106*
Y297D03*
D02*
D107*
X1003Y269D03*
D02*
D106*
Y297D03*
D02*
D107*
X1082Y269D03*
D02*
D106*
Y297D03*
D02*
D107*
X1161Y269D03*
D02*
D106*
Y297D03*
D02*
D107*
X1240Y269D03*
D02*
D106*
Y297D03*
D02*
D107*
X1318Y269D03*
D02*
D106*
Y297D03*
D02*
D108*
X158Y673D02*
X485D01*
X368Y407D02*
X416D01*
D02*
D109*
X485Y668D02*
Y407D01*
X416*
X527Y748D02*
X485D01*
Y668*
D02*
D127*
X767Y837D02*
Y675D01*
X766*
X1240Y279D02*
Y430D01*
X1229*
X1318Y837D02*
Y635D01*
X0Y0D02*
M02*
