%FSLAX23Y23*%
%MOIN*%
G04 EasyPC Gerber Version 17.0 Build 3379 *
%ADD11C,0.00100*%
%ADD16C,0.00128*%
%ADD13C,0.00300*%
%ADD15C,0.00400*%
%ADD10C,0.00500*%
%ADD12C,0.00600*%
%ADD14C,0.00800*%
X0Y0D02*
D02*
D10*
X84Y327D02*
X97D01*
X91D02*
Y365D01*
X84D02*
X97D01*
X156Y334D02*
X153Y330D01*
X147Y327*
X137*
X131Y330*
X128Y334*
X125Y340*
Y352*
X128Y359*
X131Y362*
X137Y365*
X147*
X153Y362*
X156Y359*
X200Y327D02*
X175D01*
X197Y349*
X200Y355*
X197Y362*
X191Y365*
X181*
X175Y362*
X150Y438D02*
X335D01*
Y598*
X150*
Y438*
X368Y165D02*
X169D01*
Y310*
X376*
Y173*
X368Y165*
X376Y198D02*
G75*
G03X365I-6D01*
G01*
G75*
G03X376I6*
G01*
G36*
G75*
G03X365I-6*
G01*
G75*
G03X376I6*
G01*
G37*
X418Y84D02*
X1817D01*
Y773*
X418*
Y84*
X1592Y982D02*
X1604D01*
X1598D02*
Y1019D01*
X1592D02*
X1604D01*
X1664Y988D02*
X1661Y985D01*
X1654Y982*
X1645*
X1639Y985*
X1636Y988*
X1633Y994*
Y1007*
X1636Y1013*
X1639Y1016*
X1645Y1019*
X1654*
X1661Y1016*
X1664Y1013*
X1686Y985D02*
X1692Y982D01*
X1698*
X1704Y985*
X1708Y991*
X1704Y998*
X1698Y1001*
X1692*
X1698D02*
X1704Y1004D01*
X1708Y1010*
X1704Y1016*
X1698Y1019*
X1692*
X1686Y1016*
X1588Y963D02*
Y1093D01*
X1418*
Y963*
X1588*
D02*
D11*
X134Y21D02*
Y39D01*
X141Y30*
X149Y39*
Y21*
X171D02*
X159D01*
X170Y32*
X171Y35*
X170Y38*
X166Y39*
X162*
X159Y38*
X188Y645D02*
Y625D01*
X214*
Y645*
X188*
G36*
Y625*
X214*
Y645*
X188*
G37*
Y682D02*
Y663D01*
X214*
Y682*
X188*
G36*
Y663*
X214*
Y682*
X188*
G37*
Y720D02*
Y700D01*
X214*
Y720*
X188*
G36*
Y700*
X214*
Y720*
X188*
G37*
X225Y571D02*
Y552D01*
X241*
X254D02*
X260D01*
X257D02*
Y571D01*
X254Y568*
X281Y645D02*
Y625D01*
X307*
Y645*
X281*
G36*
Y625*
X307*
Y645*
X281*
G37*
Y720D02*
Y700D01*
X307*
Y720*
X281*
G36*
Y700*
X307*
Y720*
X281*
G37*
X297Y67D02*
Y86D01*
X305Y77*
X313Y86*
Y67*
X326D02*
X332D01*
X329D02*
Y86D01*
X326Y83*
X483Y427D02*
X475Y435D01*
X483Y443*
X508Y427D02*
X500Y435D01*
X508Y443*
X533Y427D02*
X525Y435D01*
X533Y443*
X543Y446D02*
Y432D01*
X544Y429*
X547Y427*
X553*
X557Y429*
X558Y432*
Y446*
X568Y432D02*
X569Y429D01*
X572Y427*
X578*
X582Y429*
X583Y432*
X582Y435*
X578Y437*
X572*
X569Y438*
X568Y441*
X569Y444*
X572Y446*
X578*
X582Y444*
X583Y441*
X603Y437D02*
X607Y435D01*
X608Y432*
X607Y429*
X603Y427*
X593*
Y446*
X603*
X607Y444*
X608Y441*
X607Y438*
X603Y437*
X593*
X643Y427D02*
Y446D01*
X653*
X657Y444*
X658Y441*
X657Y438*
X653Y437*
X643*
X668Y433D02*
Y440D01*
X669Y443*
X671Y444*
X674Y446*
X677*
X680Y444*
X682Y443*
X683Y440*
Y433*
X682Y430*
X680Y429*
X677Y427*
X674*
X671Y429*
X669Y430*
X668Y433*
X693Y427D02*
Y446D01*
X703*
X707Y444*
X708Y441*
X707Y438*
X703Y437*
X693*
X703D02*
X708Y427D01*
X725D02*
Y446D01*
X718D02*
X733D01*
X473Y32D02*
Y51D01*
X483*
X487Y49*
X488Y46*
X487Y43*
X483Y42*
X473*
X483D02*
X488Y32D01*
X498D02*
X513Y51D01*
X498D02*
X513Y32D01*
X526D02*
X532D01*
X529D02*
Y51D01*
X526Y48*
X498Y1137D02*
X499Y1134D01*
X502Y1132*
X508*
X512Y1134*
X513Y1137*
X512Y1140*
X508Y1142*
X502*
X499Y1143*
X498Y1146*
X499Y1149*
X502Y1151*
X508*
X512Y1149*
X513Y1146*
X523Y1151D02*
X524Y1132D01*
X530Y1142*
X537Y1132*
X538Y1151*
X715Y32D02*
Y51D01*
X708D02*
X723D01*
X733Y32D02*
X748Y51D01*
X733D02*
X748Y32D01*
X761D02*
X767D01*
X764D02*
Y51D01*
X761Y48*
X975Y527D02*
Y546D01*
X968D02*
X983D01*
X993Y527D02*
Y546D01*
X1008*
X1005Y537D02*
X993D01*
Y527D02*
X1008D01*
X1018D02*
Y546D01*
X1033*
X1030Y537D02*
X1018D01*
Y527D02*
X1033D01*
X1043D02*
Y546D01*
X1058Y527*
Y546*
X1067Y532D02*
X1069Y529D01*
X1072Y527*
X1078*
X1082Y529*
X1083Y532*
X1082Y535*
X1078Y537*
X1072*
X1069Y538*
X1067Y541*
X1069Y544*
X1072Y546*
X1078*
X1082Y544*
X1083Y541*
X1100Y527D02*
Y537D01*
X1093Y546*
X1100Y537D02*
X1108Y546D01*
X1144Y529D02*
X1147Y527D01*
X1150*
X1153Y529*
X1155Y532*
X1153Y535*
X1150Y537*
X1147*
X1150D02*
X1153Y538D01*
X1155Y541*
X1153Y544*
X1150Y546*
X1147*
X1144Y544*
X1169Y527D02*
X1171Y529D01*
X1169Y530*
X1168Y529*
X1169Y527*
X1196D02*
X1202D01*
X1199D02*
Y546D01*
X1196Y543*
X1398Y1098D02*
X1410D01*
X1401Y1092D02*
X1407Y1105D01*
X1401D02*
X1407Y1092D01*
X1413Y912D02*
X1414Y909D01*
X1417Y907*
X1423*
X1427Y909*
X1428Y912*
X1427Y915*
X1423Y917*
X1417*
X1414Y918*
X1413Y921*
X1414Y924*
X1417Y926*
X1423*
X1427Y924*
X1428Y921*
X1438Y907D02*
Y926D01*
X1447*
X1450Y924*
X1452Y923*
X1453Y920*
Y913*
X1452Y910*
X1450Y909*
X1447Y907*
X1438*
X1463D02*
X1470Y926D01*
X1478Y907*
X1466Y915D02*
X1475D01*
X1433Y32D02*
X1440Y51D01*
X1448Y32*
X1436Y40D02*
X1445D01*
X1458Y32D02*
Y51D01*
X1473Y32*
Y51*
X1490Y32D02*
Y51D01*
X1483D02*
X1498D01*
X1528Y912D02*
X1529Y909D01*
X1532Y907*
X1538*
X1542Y909*
X1543Y912*
X1542Y915*
X1538Y917*
X1532*
X1529Y918*
X1528Y921*
X1529Y924*
X1532Y926*
X1538*
X1542Y924*
X1543Y921*
X1568Y910D02*
X1567Y909D01*
X1563Y907*
X1559*
X1556Y909*
X1554Y910*
X1553Y913*
Y920*
X1554Y923*
X1556Y924*
X1559Y926*
X1563*
X1567Y924*
X1568Y923*
X1578Y926D02*
Y907D01*
X1593*
X1629Y1124D02*
X1632Y1122D01*
X1635*
X1638Y1124*
X1640Y1127*
X1638Y1130*
X1635Y1132*
X1632*
X1635D02*
X1638Y1133D01*
X1640Y1136*
X1638Y1139*
X1635Y1141*
X1632*
X1629Y1139*
X1654Y1122D02*
X1656Y1124D01*
X1654Y1125*
X1653Y1124*
X1654Y1122*
X1679Y1124D02*
X1682Y1122D01*
X1685*
X1688Y1124*
X1690Y1127*
X1688Y1130*
X1685Y1132*
X1682*
X1685D02*
X1688Y1133D01*
X1690Y1136*
X1688Y1139*
X1685Y1141*
X1682*
X1679Y1139*
X1703Y1141D02*
X1710Y1122D01*
X1718Y1141*
X1679Y934D02*
X1682Y932D01*
X1685*
X1688Y934*
X1690Y937*
Y946*
X1688Y949*
X1685Y951*
X1682*
X1679Y949*
X1678Y946*
Y937*
X1679Y934*
X1688Y949*
X1703Y951D02*
X1710Y932D01*
X1718Y951*
D02*
D12*
X216Y617D02*
Y728D01*
X279*
Y617*
X216*
X329Y661D02*
Y684D01*
X376Y661D02*
Y684D01*
X639Y979D02*
Y956D01*
X686Y979D02*
Y956D01*
X939Y919D02*
X1096D01*
X1006Y1116D02*
G75*
G03X1030I12D01*
G01*
X1096D02*
X939D01*
X1266Y974D02*
X1289D01*
X1266Y1021D02*
X1289D01*
X1266Y1049D02*
X1289D01*
X1266Y1096D02*
X1289D01*
D02*
D13*
X888Y1129D02*
X913D01*
X894Y1117D02*
X906Y1142D01*
X894D02*
X906Y1117D01*
X973Y1079D02*
Y1051D01*
X976Y1045*
X982Y1042*
X994*
X1001Y1045*
X1004Y1051*
Y1079*
X1048Y1042D02*
X1023D01*
X1044Y1064*
X1048Y1070*
X1044Y1076*
X1038Y1079*
X1029*
X1023Y1076*
D02*
D14*
X231Y729D02*
X264D01*
Y617D02*
X231D01*
X279Y683D02*
Y662D01*
X361Y1093D02*
Y842D01*
X460*
Y810*
X164*
Y1125*
X460*
Y1093*
X361*
D02*
D15*
X436Y853D02*
Y877D01*
Y1053D02*
Y1077D01*
X448Y1065D02*
X423D01*
D02*
D16*
X243Y707D02*
Y703D01*
Y705D02*
X255D01*
Y707D02*
Y703D01*
X245Y684D02*
X244Y685D01*
X243Y687*
Y690*
X244Y692*
X245Y693*
X247Y694*
X251*
X253Y693*
X254Y692*
X255Y690*
Y687*
X254Y685*
X253Y684*
X243Y676D02*
Y672D01*
Y674D02*
X255D01*
X253Y676*
X278Y918D02*
X279Y919D01*
X280Y921*
X279Y923*
X278Y924*
X268*
Y925*
Y924D02*
Y920D01*
X280Y934D02*
X268D01*
Y941*
X269Y943*
X271Y944*
X273Y943*
X274Y941*
Y934*
X280Y952D02*
Y956D01*
Y954D02*
X268D01*
X270Y952*
X320Y663D02*
X308D01*
Y670*
X309Y672*
X311Y673*
X313Y672*
X314Y670*
Y663*
Y670D02*
X320Y673D01*
Y681D02*
Y685D01*
Y683D02*
X308D01*
X309Y681*
X703Y963D02*
X704Y962D01*
X705Y960*
Y956*
X704Y955*
X703Y954*
X701Y953*
X697*
X695Y954*
X694Y955*
X693Y956*
Y960*
X694Y962*
X695Y963*
X705Y977D02*
Y969D01*
X698Y976*
X696Y977*
X694Y976*
X693Y974*
Y971*
X694Y969*
X724Y958D02*
X712D01*
X720Y953*
Y961*
X724Y970D02*
X723Y971D01*
X722Y970*
X723Y969*
X724Y970*
Y985D02*
X712Y993D01*
Y985*
X716Y1000D02*
X721D01*
X723Y1002*
X724Y1004*
Y1006*
X723Y1008*
X721Y1009*
X716D02*
X724D01*
Y1016D02*
X712D01*
Y1027*
X718Y1025D02*
Y1016D01*
X1263Y1111D02*
Y1123D01*
X1270*
X1272Y1122*
X1273Y1120*
X1272Y1117*
X1270Y1117*
X1263*
X1270D02*
X1273Y1111D01*
X1284D02*
Y1123D01*
X1279Y1115*
X1287*
X1268Y1026D02*
Y1038D01*
X1275*
X1277Y1037*
X1278Y1035*
X1277Y1033*
X1275Y1032*
X1268*
X1275D02*
X1278Y1026D01*
X1284Y1027D02*
X1286Y1026D01*
X1289*
X1290Y1027*
X1292Y1029*
Y1030*
X1290Y1032*
X1289Y1033*
X1284*
Y1038*
X1292*
X0Y0D02*
M02*
