%FSLAX23Y23*%
%MOIN*%
G04 EasyPC Gerber Version 17.0 Build 3379 *
%ADD133R,0.01400X0.06500*%
%ADD28R,0.03150X0.04724*%
%ADD18R,0.04724X0.14567*%
%ADD75C,0.01000*%
%ADD74C,0.01500*%
%ADD76C,0.02500*%
%ADD72C,0.03000*%
%ADD129C,0.03150*%
%ADD17C,0.03200*%
%ADD126C,0.03937*%
%ADD73C,0.04000*%
%ADD29C,0.04800*%
%ADD109C,0.05000*%
%ADD19C,0.06000*%
%ADD70C,0.06000*%
%ADD71R,0.06600X0.02000*%
%ADD22R,0.04724X0.02165*%
%ADD23R,0.04724X0.03150*%
%ADD26R,0.05906X0.03937*%
%ADD27R,0.06102X0.03937*%
%ADD20R,0.18110X0.03937*%
%ADD21R,0.13386X0.06299*%
%ADD134R,0.11100X0.09700*%
X0Y0D02*
D02*
D17*
X318Y620D03*
X318Y563D03*
X322Y271D03*
X363Y632D03*
Y673D03*
X367Y257D03*
X1167Y804D03*
X1255Y807D03*
X1326Y220D03*
X1403Y808D03*
D02*
D18*
X386Y518D03*
X508D03*
D02*
D19*
X320Y45D03*
X417Y42D03*
X522Y49D03*
X602Y51D03*
X673Y123D03*
X723Y1008D03*
Y1088D03*
X773Y43D03*
Y123D03*
Y623D03*
Y723D03*
X873Y43D03*
Y123D03*
Y723D03*
X973Y123D03*
X1073D03*
X1173D03*
X1273D03*
X1373D03*
X1473D03*
X1573Y43D03*
Y123D03*
X1653Y873D03*
X1673Y123D03*
Y723D03*
X1758Y873D03*
X1773Y123D03*
Y723D03*
X1873Y123D03*
Y723D03*
X1968Y1056D03*
Y1129D03*
X1973Y123D03*
Y223D03*
Y323D03*
Y423D03*
Y523D03*
Y623D03*
Y723D03*
Y873D03*
Y946D03*
D02*
D70*
X973Y623D03*
Y723D03*
X1073Y623D03*
Y723D03*
X1173Y623D03*
Y723D03*
X1273D03*
X1373D03*
X1473D03*
X1573D03*
D02*
D71*
X1128Y943D03*
Y993D03*
Y1043D03*
Y1093D03*
X1318Y943D03*
Y993D03*
Y1043D03*
Y1093D03*
D02*
D20*
X634Y928D03*
Y1007D03*
D02*
D21*
X429Y834D03*
Y1101D03*
D02*
D22*
X402Y635D03*
Y673D03*
Y710D03*
X504Y635D03*
Y710D03*
D02*
D23*
X275Y145D03*
Y216D03*
X558Y637D03*
Y708D03*
X636Y366D03*
Y437D03*
X868Y932D03*
Y1003D03*
D02*
D26*
X1658Y988D03*
X1757D03*
D02*
D27*
X1658Y1066D03*
X1757D03*
D02*
D28*
X247Y380D03*
X317D03*
X1448Y998D03*
Y1073D03*
X1519Y998D03*
Y1073D03*
D02*
D29*
X255Y465D03*
X378Y763D03*
X585Y246D03*
X713Y927D03*
X793Y928D03*
X812Y234D03*
X874Y309D03*
X1043Y998D03*
X1048Y1093D03*
X1187Y551D03*
X1388Y993D03*
X1680Y444D03*
X1760Y398D03*
X1848Y1073D03*
D02*
D72*
X318Y563D02*
Y518D01*
X386*
X402Y635D02*
X363D01*
X402Y710D02*
X318D01*
Y563*
X533Y710D02*
X504D01*
X548Y763D02*
Y710D01*
X533*
X558Y708D02*
X613D01*
Y518*
X508*
X723Y1088D02*
X858D01*
Y1003*
X868*
X948*
Y943*
X1128*
X1210Y225D03*
X1423Y1127D02*
X1658D01*
X1423D02*
Y993D01*
X1658Y1127D02*
X1923D01*
X1848Y1073D02*
Y943D01*
X1908*
Y873*
X1973*
X1908Y943D02*
X1941D01*
Y946*
X1973*
X1923Y1127D02*
Y1056D01*
X1968*
X1923Y1127D02*
X1946D01*
Y1129*
X1968*
D02*
D73*
X378Y763D02*
X548D01*
X634Y928D02*
X793D01*
X713Y927D02*
X868D01*
X873Y723D02*
Y863D01*
X1318*
Y943*
X874Y309D02*
X1011D01*
Y225*
X1210*
X1043Y998D02*
X1088D01*
Y993*
X1128*
X1318D02*
Y943D01*
X1388Y993D02*
X1318D01*
D02*
D74*
X247Y380D02*
Y465D01*
X255*
X317Y380D02*
X319D01*
Y399*
X407*
Y343*
X322Y271D02*
Y343D01*
X356*
X363Y635D02*
Y632D01*
X382Y121D02*
Y71D01*
X320*
Y45*
X382Y343D02*
X382D01*
Y294*
X369*
Y257*
X367*
X407Y121D02*
Y232D01*
X446*
X433Y121D02*
Y42D01*
X417*
X433Y343D02*
Y232D01*
X446*
X459Y121D02*
Y68D01*
X522*
Y49*
X459Y343D02*
Y424D01*
X459*
X484Y121D02*
Y232D01*
X446*
X509Y121D02*
Y168D01*
X602*
Y51*
X509Y343D02*
X509D01*
Y294*
X805*
Y397*
X1766*
X1760Y398*
X536Y343D02*
Y325D01*
X769*
Y443*
X1680*
Y444*
X558Y637D02*
X504D01*
Y635*
X558Y708D02*
X533D01*
Y710*
X636Y366D02*
X588D01*
Y399*
X484*
Y343*
X636Y437D02*
Y424D01*
X459*
X773Y43D02*
Y123D01*
X793Y928D02*
Y928D01*
X812Y234D02*
X875D01*
Y172*
X1173*
Y123*
X868Y927D02*
Y932D01*
X873Y43D02*
Y123D01*
X1128Y1093D02*
X1048D01*
X1167Y804D02*
X1122D01*
Y495*
X1873*
Y495*
X1187Y551D02*
X1912D01*
Y172*
X1931*
Y123*
X1973*
X1255Y807D02*
X1273D01*
Y723*
X1318Y1093D02*
X1223D01*
Y943*
X1128*
X1326Y220D02*
Y123D01*
X1373*
Y723D02*
Y764D01*
X1444*
Y928*
X1519*
Y998*
X1388Y993D02*
X1423D01*
X1403Y808D02*
X1353D01*
Y778*
X1323*
Y673*
X1218*
Y723*
X1173*
X1423Y993D02*
X1448D01*
Y1073*
Y1127*
X1423*
X1519Y1073D02*
X1593D01*
Y863*
X1473*
Y723*
X1658Y988D02*
Y863D01*
X1593*
X1658Y1066D02*
Y1127D01*
X1757Y988D02*
Y810D01*
X1525*
Y673*
X1373*
Y723*
X1757Y1066D02*
Y1073D01*
X1848*
X1873Y495D02*
X1873D01*
Y123*
X1873Y495D02*
Y473D01*
D02*
D75*
X275Y145D02*
Y121D01*
X356*
X275Y216D02*
Y424D01*
X459*
D02*
D76*
X363Y673D02*
X402D01*
D02*
D109*
X446Y232D02*
Y246D01*
X585*
D02*
D126*
X297Y1041D02*
Y763D01*
X378*
X459Y424D03*
D02*
D129*
X723Y1088D02*
X522D01*
Y1041*
X297*
D02*
D133*
X356Y121D03*
Y343D03*
X382Y121D03*
Y343D03*
X407Y121D03*
Y343D03*
X433Y121D03*
Y343D03*
X459Y121D03*
Y343D03*
X484Y121D03*
Y343D03*
X509Y121D03*
Y343D03*
X536Y121D03*
Y343D03*
D02*
D134*
X446Y232D03*
X0Y0D02*
M02*
